<?xml version="1.0"?><svg fill="#000000" xmlns="http://www.w3.org/2000/svg"  viewBox="0 0 30 30" width="30px" height="30px">    <path d="M15,3C8.373,3,3,8.373,3,15c0,6.627,5.373,12,12,12s12-5.373,12-12C27,8.373,21.627,3,15,3z M24.084,10.843 c0.003,0.096,0.018,0.178,0.018,0.278c0,1.043-0.196,2.217-0.783,3.687l-2.987,8.637c-0.634,0.402-1.315,0.732-2.034,0.984 l-3.116-8.531l-2.991,8.692c-0.64-0.188-1.253-0.437-1.833-0.742L5.747,11.221c0.271-0.661,0.609-1.286,1.008-1.868 c0.102,0.002,0.217,0.005,0.307,0.005c1.076,0,2.743-0.131,2.743-0.131c0.556-0.031,0.62,0.783,0.066,0.849 c0,0-0.558,0.065-1.178,0.098l3.748,11.151l2.252-6.757l-1.602-4.396c-0.556-0.031-1.08-0.096-1.08-0.096 c-0.556-0.033-0.489-0.882,0.065-0.849c0,0,1.7,0.131,2.71,0.131c1.076,0,2.743-0.131,2.743-0.131 c0.556-0.031,0.62,0.783,0.066,0.849c0,0-0.559,0.065-1.178,0.098l3.72,11.066l1.028-3.434c0.522-1.337,0.783-2.444,0.783-3.327 c0-1.272-0.456-2.153-0.849-2.838c-0.521-0.849-1.012-1.566-1.012-2.415c0-0.849,0.58-1.64,1.431-1.794 C22.602,8.368,23.48,9.529,24.084,10.843z"/></svg>